<mxfile host="app.diagrams.net" agent="Mozilla/5.0 (Windows NT 10.0; Win64; x64) AppleWebKit/537.36 (KHTML, like Gecko) Chrome/127.0.0.0 Safari/537.36" version="24.7.6">
  <diagram name="第 1 页" id="TNhrhLdlypGdCF_QHv-n">
    <mxGraphModel dx="1434" dy="738" grid="1" gridSize="10" guides="1" tooltips="1" connect="1" arrows="1" fold="1" page="1" pageScale="1" pageWidth="900" pageHeight="1600" math="0" shadow="0">
      <root>
        <mxCell id="0" />
        <mxCell id="1" parent="0" />
        <mxCell id="rBbP7oCfItHO99S8qVWC-1" value="&lt;font style=&quot;font-size: 16px;&quot;&gt;服务层&lt;/font&gt;" style="swimlane;whiteSpace=wrap;html=1;fontSize=12;shadow=1;rounded=1;" parent="1" vertex="1">
          <mxGeometry x="800" y="290" width="330" height="600" as="geometry" />
        </mxCell>
        <mxCell id="9CdUIaJMx9FMmrSefO2G-109" value="机器人REST API 服务" style="swimlane;whiteSpace=wrap;html=1;fontSize=12;fillColor=#d5e8d4;strokeColor=#82b366;textShadow=0;" parent="rBbP7oCfItHO99S8qVWC-1" vertex="1">
          <mxGeometry x="18" y="55" width="290" height="110" as="geometry" />
        </mxCell>
        <mxCell id="9CdUIaJMx9FMmrSefO2G-116" value="mongoDB" style="rounded=1;whiteSpace=wrap;html=1;fontSize=12;fillColor=#d5e8d4;strokeColor=#82b366;" parent="9CdUIaJMx9FMmrSefO2G-109" vertex="1">
          <mxGeometry x="22" y="45" width="100" height="40" as="geometry" />
        </mxCell>
        <mxCell id="9CdUIaJMx9FMmrSefO2G-117" value="express" style="rounded=1;whiteSpace=wrap;html=1;fontSize=12;fillColor=#d5e8d4;strokeColor=#82b366;" parent="9CdUIaJMx9FMmrSefO2G-109" vertex="1">
          <mxGeometry x="170" y="45" width="100" height="40" as="geometry" />
        </mxCell>
        <mxCell id="9CdUIaJMx9FMmrSefO2G-14" value="机器人指令的MQTT中间件：EMQX" style="swimlane;whiteSpace=wrap;html=1;startSize=23;fillColor=#e1d5e7;strokeColor=#9673a6;fontSize=12;" parent="rBbP7oCfItHO99S8qVWC-1" vertex="1">
          <mxGeometry x="18" y="262.5" width="290" height="130" as="geometry" />
        </mxCell>
        <mxCell id="9CdUIaJMx9FMmrSefO2G-51" value="" style="group;fontSize=12;fillColor=#E1D5E7;strokeColor=#9673a6;rounded=1;glass=0;shadow=0;" parent="9CdUIaJMx9FMmrSefO2G-14" vertex="1" connectable="0">
          <mxGeometry x="20" y="40" width="250" height="65" as="geometry" />
        </mxCell>
        <mxCell id="9CdUIaJMx9FMmrSefO2G-18" style="edgeStyle=orthogonalEdgeStyle;rounded=0;orthogonalLoop=1;jettySize=auto;html=1;exitX=1;exitY=0.25;exitDx=0;exitDy=0;entryX=0;entryY=0.25;entryDx=0;entryDy=0;fontSize=12;" parent="9CdUIaJMx9FMmrSefO2G-51" source="9CdUIaJMx9FMmrSefO2G-15" target="9CdUIaJMx9FMmrSefO2G-16" edge="1">
          <mxGeometry relative="1" as="geometry" />
        </mxCell>
        <mxCell id="9CdUIaJMx9FMmrSefO2G-15" value="WebSocket消息" style="text;html=1;align=center;verticalAlign=middle;whiteSpace=wrap;rounded=0;labelBorderColor=none;fontSize=12;" parent="9CdUIaJMx9FMmrSefO2G-51" vertex="1">
          <mxGeometry width="90" height="65" as="geometry" />
        </mxCell>
        <mxCell id="9CdUIaJMx9FMmrSefO2G-19" style="edgeStyle=orthogonalEdgeStyle;rounded=0;orthogonalLoop=1;jettySize=auto;html=1;exitX=0;exitY=0.75;exitDx=0;exitDy=0;entryX=1;entryY=0.75;entryDx=0;entryDy=0;fontSize=12;" parent="9CdUIaJMx9FMmrSefO2G-51" source="9CdUIaJMx9FMmrSefO2G-16" target="9CdUIaJMx9FMmrSefO2G-15" edge="1">
          <mxGeometry relative="1" as="geometry" />
        </mxCell>
        <mxCell id="9CdUIaJMx9FMmrSefO2G-16" value="MQTT消息" style="text;html=1;align=center;verticalAlign=middle;whiteSpace=wrap;rounded=0;fontSize=12;" parent="9CdUIaJMx9FMmrSefO2G-51" vertex="1">
          <mxGeometry x="180" width="70" height="65" as="geometry" />
        </mxCell>
        <mxCell id="9CdUIaJMx9FMmrSefO2G-20" value="转换" style="text;html=1;align=center;verticalAlign=middle;whiteSpace=wrap;rounded=0;fontSize=12;" parent="9CdUIaJMx9FMmrSefO2G-51" vertex="1">
          <mxGeometry x="101" y="17.5" width="60" height="30" as="geometry" />
        </mxCell>
        <mxCell id="9CdUIaJMx9FMmrSefO2G-21" value="视频流功能的WebRTC中间件：SRS" style="swimlane;whiteSpace=wrap;html=1;fillColor=#dae8fc;strokeColor=#6c8ebf;fontSize=12;" parent="rBbP7oCfItHO99S8qVWC-1" vertex="1">
          <mxGeometry x="18" y="441" width="290" height="140" as="geometry" />
        </mxCell>
        <mxCell id="9CdUIaJMx9FMmrSefO2G-52" value="" style="group;fontSize=12;fillColor=#dae8fc;strokeColor=#6c8ebf;rounded=1;" parent="9CdUIaJMx9FMmrSefO2G-21" vertex="1" connectable="0">
          <mxGeometry x="20" y="50" width="250" height="65" as="geometry" />
        </mxCell>
        <mxCell id="9CdUIaJMx9FMmrSefO2G-22" style="edgeStyle=orthogonalEdgeStyle;rounded=0;orthogonalLoop=1;jettySize=auto;html=1;exitX=1;exitY=0.25;exitDx=0;exitDy=0;entryX=0;entryY=0.25;entryDx=0;entryDy=0;fontSize=12;" parent="9CdUIaJMx9FMmrSefO2G-52" source="9CdUIaJMx9FMmrSefO2G-23" target="9CdUIaJMx9FMmrSefO2G-25" edge="1">
          <mxGeometry relative="1" as="geometry" />
        </mxCell>
        <mxCell id="9CdUIaJMx9FMmrSefO2G-23" value="WebRTC流" style="text;html=1;align=center;verticalAlign=middle;whiteSpace=wrap;rounded=0;labelBorderColor=none;fontSize=12;" parent="9CdUIaJMx9FMmrSefO2G-52" vertex="1">
          <mxGeometry width="90" height="65" as="geometry" />
        </mxCell>
        <mxCell id="9CdUIaJMx9FMmrSefO2G-24" style="edgeStyle=orthogonalEdgeStyle;rounded=0;orthogonalLoop=1;jettySize=auto;html=1;exitX=0;exitY=0.75;exitDx=0;exitDy=0;entryX=1;entryY=0.75;entryDx=0;entryDy=0;fontSize=12;" parent="9CdUIaJMx9FMmrSefO2G-52" source="9CdUIaJMx9FMmrSefO2G-25" target="9CdUIaJMx9FMmrSefO2G-23" edge="1">
          <mxGeometry relative="1" as="geometry" />
        </mxCell>
        <mxCell id="9CdUIaJMx9FMmrSefO2G-25" value="RTMP流" style="text;html=1;align=center;verticalAlign=middle;whiteSpace=wrap;rounded=0;fontSize=12;" parent="9CdUIaJMx9FMmrSefO2G-52" vertex="1">
          <mxGeometry x="180" width="70" height="65" as="geometry" />
        </mxCell>
        <mxCell id="9CdUIaJMx9FMmrSefO2G-26" value="转换" style="text;html=1;align=center;verticalAlign=middle;whiteSpace=wrap;rounded=0;fontSize=12;" parent="9CdUIaJMx9FMmrSefO2G-52" vertex="1">
          <mxGeometry x="101" y="17.5" width="60" height="30" as="geometry" />
        </mxCell>
        <mxCell id="9CdUIaJMx9FMmrSefO2G-46" value="&lt;font style=&quot;font-size: 16px;&quot;&gt;客户端&lt;/font&gt;" style="swimlane;whiteSpace=wrap;html=1;fontSize=12;shadow=1;rounded=1;" parent="1" vertex="1">
          <mxGeometry x="260" y="290" width="270" height="600" as="geometry" />
        </mxCell>
        <mxCell id="9CdUIaJMx9FMmrSefO2G-40" value="" style="endArrow=classic;startArrow=classic;html=1;rounded=0;strokeWidth=2;fontSize=12;fillColor=#e1d5e7;strokeColor=#9673a6;" parent="9CdUIaJMx9FMmrSefO2G-46" edge="1">
          <mxGeometry width="50" height="50" relative="1" as="geometry">
            <mxPoint x="230" y="330.75" as="sourcePoint" />
            <mxPoint x="420" y="330" as="targetPoint" />
          </mxGeometry>
        </mxCell>
        <mxCell id="9CdUIaJMx9FMmrSefO2G-108" value="WebSocket协议发布/&#xa;订阅机器人指令" style="edgeLabel;align=center;verticalAlign=middle;resizable=0;points=[];fontSize=12;rotatable=1;resizeWidth=1;" parent="9CdUIaJMx9FMmrSefO2G-40" vertex="1" connectable="0">
          <mxGeometry relative="1" as="geometry">
            <mxPoint as="offset" />
          </mxGeometry>
        </mxCell>
        <mxCell id="JG0zNHSWIR55deKO-XV1-1" value="" style="group;rounded=1;" vertex="1" connectable="0" parent="9CdUIaJMx9FMmrSefO2G-46">
          <mxGeometry x="40" y="90" width="190" height="450" as="geometry" />
        </mxCell>
        <mxCell id="9CdUIaJMx9FMmrSefO2G-4" value="机器人任务、工作区管理模块" style="rounded=1;hachureGap=4;fontFamily=Architects Daughter;fontSource=https%3A%2F%2Ffonts.googleapis.com%2Fcss%3Ffamily%3DArchitects%2BDaughter;align=center;labelPosition=center;verticalLabelPosition=middle;verticalAlign=middle;whiteSpace=wrap;html=1;fontSize=12;fillColor=#d5e8d4;strokeColor=#82b366;" parent="JG0zNHSWIR55deKO-XV1-1" vertex="1">
          <mxGeometry width="190" height="60" as="geometry" />
        </mxCell>
        <mxCell id="9CdUIaJMx9FMmrSefO2G-43" value="" style="edgeStyle=orthogonalEdgeStyle;rounded=0;orthogonalLoop=1;jettySize=auto;html=1;fontSize=12;" parent="JG0zNHSWIR55deKO-XV1-1" source="9CdUIaJMx9FMmrSefO2G-4" target="9CdUIaJMx9FMmrSefO2G-44" edge="1">
          <mxGeometry relative="1" as="geometry">
            <mxPoint x="95" y="190" as="targetPoint" />
            <mxPoint x="95" as="sourcePoint" />
          </mxGeometry>
        </mxCell>
        <mxCell id="9CdUIaJMx9FMmrSefO2G-42" style="edgeStyle=orthogonalEdgeStyle;rounded=0;orthogonalLoop=1;jettySize=auto;html=1;fontSize=12;" parent="JG0zNHSWIR55deKO-XV1-1" source="9CdUIaJMx9FMmrSefO2G-44" edge="1">
          <mxGeometry relative="1" as="geometry">
            <mxPoint x="95" y="190" as="targetPoint" />
          </mxGeometry>
        </mxCell>
        <mxCell id="9CdUIaJMx9FMmrSefO2G-6" value="机器人控制模块" style="rounded=1;hachureGap=4;fontFamily=Architects Daughter;fontSource=https%3A%2F%2Ffonts.googleapis.com%2Fcss%3Ffamily%3DArchitects%2BDaughter;align=center;labelPosition=center;verticalLabelPosition=middle;verticalAlign=middle;whiteSpace=wrap;html=1;fontSize=12;fillColor=#e1d5e7;strokeColor=#9673a6;" parent="JG0zNHSWIR55deKO-XV1-1" vertex="1">
          <mxGeometry y="205.5" width="190" height="60" as="geometry" />
        </mxCell>
        <mxCell id="9CdUIaJMx9FMmrSefO2G-7" value="机器人视频模块" style="rounded=1;hachureGap=4;fontFamily=Architects Daughter;fontSource=https%3A%2F%2Ffonts.googleapis.com%2Fcss%3Ffamily%3DArchitects%2BDaughter;align=center;labelPosition=center;verticalLabelPosition=middle;verticalAlign=middle;whiteSpace=wrap;html=1;fontSize=12;fillColor=#dae8fc;strokeColor=#6c8ebf;" parent="JG0zNHSWIR55deKO-XV1-1" vertex="1">
          <mxGeometry y="390" width="190" height="60" as="geometry" />
        </mxCell>
        <mxCell id="9CdUIaJMx9FMmrSefO2G-44" value="预定义机器人任务&lt;br style=&quot;font-size: 12px;&quot;&gt;发布任务指令" style="text;html=1;align=center;verticalAlign=middle;whiteSpace=wrap;rounded=0;fontSize=12;" parent="JG0zNHSWIR55deKO-XV1-1" vertex="1">
          <mxGeometry x="37.5" y="110" width="115" height="30" as="geometry" />
        </mxCell>
        <mxCell id="9CdUIaJMx9FMmrSefO2G-54" value="&lt;font style=&quot;font-size: 16px;&quot;&gt;硬件终端&lt;/font&gt;" style="swimlane;whiteSpace=wrap;html=1;startSize=23;fontSize=12;shadow=1;rounded=1;" parent="1" vertex="1">
          <mxGeometry x="1430" y="290" width="220" height="600" as="geometry" />
        </mxCell>
        <mxCell id="9CdUIaJMx9FMmrSefO2G-29" value="机器人" style="rounded=1;whiteSpace=wrap;html=1;glass=0;fontSize=12;fillColor=#f5f5f5;fontColor=#333333;strokeColor=#666666;" parent="9CdUIaJMx9FMmrSefO2G-54" vertex="1">
          <mxGeometry x="50" y="169.99526315789473" width="120" height="60" as="geometry" />
        </mxCell>
        <mxCell id="9CdUIaJMx9FMmrSefO2G-30" value="无人机" style="rounded=1;whiteSpace=wrap;html=1;fontSize=12;fillColor=#f5f5f5;fontColor=#333333;strokeColor=#666666;" parent="9CdUIaJMx9FMmrSefO2G-54" vertex="1">
          <mxGeometry x="50" y="410" width="120" height="60" as="geometry" />
        </mxCell>
        <mxCell id="9CdUIaJMx9FMmrSefO2G-59" value="WebSocket端口" style="rounded=1;whiteSpace=wrap;html=1;fillColor=#e1d5e7;strokeColor=#9673a6;fontSize=12;" parent="1" vertex="1">
          <mxGeometry x="690" y="598" width="90" height="40" as="geometry" />
        </mxCell>
        <mxCell id="9CdUIaJMx9FMmrSefO2G-60" value="" style="endArrow=none;html=1;rounded=0;exitX=1;exitY=0.5;exitDx=0;exitDy=0;strokeWidth=2;fontSize=12;fillColor=#e1d5e7;strokeColor=#9673a6;" parent="1" source="9CdUIaJMx9FMmrSefO2G-59" edge="1">
          <mxGeometry width="50" height="50" relative="1" as="geometry">
            <mxPoint x="710" y="730" as="sourcePoint" />
            <mxPoint x="820" y="618" as="targetPoint" />
          </mxGeometry>
        </mxCell>
        <mxCell id="9CdUIaJMx9FMmrSefO2G-61" value="WebRTC端口(UDP)" style="rounded=1;whiteSpace=wrap;html=1;fillColor=#dae8fc;strokeColor=#6c8ebf;fontSize=12;" parent="1" vertex="1">
          <mxGeometry x="690" y="808" width="90" height="40" as="geometry" />
        </mxCell>
        <mxCell id="9CdUIaJMx9FMmrSefO2G-62" value="HTTP API" style="rounded=1;whiteSpace=wrap;html=1;fillColor=#dae8fc;strokeColor=#6c8ebf;fontSize=12;" parent="1" vertex="1">
          <mxGeometry x="690" y="758" width="90" height="40" as="geometry" />
        </mxCell>
        <mxCell id="9CdUIaJMx9FMmrSefO2G-74" value="" style="endArrow=none;html=1;rounded=0;strokeWidth=2;fontSize=12;fillColor=#dae8fc;strokeColor=#6c8ebf;" parent="1" edge="1">
          <mxGeometry width="50" height="50" relative="1" as="geometry">
            <mxPoint x="780" y="827" as="sourcePoint" />
            <mxPoint x="820" y="827" as="targetPoint" />
          </mxGeometry>
        </mxCell>
        <mxCell id="9CdUIaJMx9FMmrSefO2G-77" value="" style="endArrow=classic;html=1;rounded=0;strokeWidth=2;fontSize=12;fillColor=#dae8fc;strokeColor=#6c8ebf;" parent="1" edge="1">
          <mxGeometry relative="1" as="geometry">
            <mxPoint x="500" y="779" as="sourcePoint" />
            <mxPoint x="680" y="779" as="targetPoint" />
          </mxGeometry>
        </mxCell>
        <mxCell id="9CdUIaJMx9FMmrSefO2G-78" value="post请求&lt;br style=&quot;font-size: 12px;&quot;&gt;SRS中间件启动推流" style="edgeLabel;resizable=0;html=1;;align=center;verticalAlign=middle;fontSize=12;" parent="9CdUIaJMx9FMmrSefO2G-77" connectable="0" vertex="1">
          <mxGeometry relative="1" as="geometry" />
        </mxCell>
        <mxCell id="9CdUIaJMx9FMmrSefO2G-80" value="" style="endArrow=classic;html=1;rounded=0;strokeWidth=2;fontSize=12;fillColor=#dae8fc;strokeColor=#6c8ebf;" parent="1" edge="1">
          <mxGeometry relative="1" as="geometry">
            <mxPoint x="680" y="827" as="sourcePoint" />
            <mxPoint x="500" y="827" as="targetPoint" />
          </mxGeometry>
        </mxCell>
        <mxCell id="9CdUIaJMx9FMmrSefO2G-81" value="WebRTC协议推送视频流" style="edgeLabel;resizable=0;html=1;;align=center;verticalAlign=middle;fontSize=12;" parent="9CdUIaJMx9FMmrSefO2G-80" connectable="0" vertex="1">
          <mxGeometry relative="1" as="geometry" />
        </mxCell>
        <mxCell id="9CdUIaJMx9FMmrSefO2G-84" value="" style="endArrow=none;html=1;rounded=0;strokeWidth=2;fontSize=12;fillColor=#dae8fc;strokeColor=#6c8ebf;" parent="1" edge="1">
          <mxGeometry width="50" height="50" relative="1" as="geometry">
            <mxPoint x="1110" y="810" as="sourcePoint" />
            <mxPoint x="1150" y="810" as="targetPoint" />
          </mxGeometry>
        </mxCell>
        <mxCell id="9CdUIaJMx9FMmrSefO2G-85" value="RTMP协议端口" style="rounded=1;whiteSpace=wrap;html=1;fillColor=#dae8fc;strokeColor=#6c8ebf;fontSize=12;" parent="1" vertex="1">
          <mxGeometry x="1150" y="788.5" width="90" height="44" as="geometry" />
        </mxCell>
        <mxCell id="9CdUIaJMx9FMmrSefO2G-90" value="" style="endArrow=classic;html=1;rounded=0;strokeWidth=2;fontSize=12;fillColor=#dae8fc;strokeColor=#6c8ebf;" parent="1" edge="1">
          <mxGeometry relative="1" as="geometry">
            <mxPoint x="1420" y="812" as="sourcePoint" />
            <mxPoint x="1240" y="812" as="targetPoint" />
          </mxGeometry>
        </mxCell>
        <mxCell id="9CdUIaJMx9FMmrSefO2G-91" value="RTMP协议推送视频流" style="edgeLabel;resizable=0;html=1;;align=center;verticalAlign=middle;fontSize=12;" parent="9CdUIaJMx9FMmrSefO2G-90" connectable="0" vertex="1">
          <mxGeometry relative="1" as="geometry" />
        </mxCell>
        <mxCell id="9CdUIaJMx9FMmrSefO2G-93" value="TCP端口" style="rounded=1;whiteSpace=wrap;html=1;fillColor=#e1d5e7;strokeColor=#9673a6;fontSize=12;" parent="1" vertex="1">
          <mxGeometry x="1150" y="598" width="90" height="40" as="geometry" />
        </mxCell>
        <mxCell id="9CdUIaJMx9FMmrSefO2G-95" value="" style="endArrow=none;html=1;rounded=0;exitX=1;exitY=0.5;exitDx=0;exitDy=0;entryX=0;entryY=0.5;entryDx=0;entryDy=0;strokeWidth=2;fontSize=12;fillColor=#e1d5e7;strokeColor=#9673a6;" parent="1" source="9CdUIaJMx9FMmrSefO2G-14" target="9CdUIaJMx9FMmrSefO2G-93" edge="1">
          <mxGeometry width="50" height="50" relative="1" as="geometry">
            <mxPoint x="1140" y="610" as="sourcePoint" />
            <mxPoint x="1190" y="560" as="targetPoint" />
          </mxGeometry>
        </mxCell>
        <mxCell id="9CdUIaJMx9FMmrSefO2G-97" value="" style="endArrow=classic;html=1;rounded=0;strokeWidth=2;fontSize=12;fillColor=#e1d5e7;strokeColor=#9673a6;" parent="1" edge="1">
          <mxGeometry relative="1" as="geometry">
            <mxPoint x="1430" y="607" as="sourcePoint" />
            <mxPoint x="1240" y="607" as="targetPoint" />
          </mxGeometry>
        </mxCell>
        <mxCell id="9CdUIaJMx9FMmrSefO2G-98" value="MQTT协议发送消息" style="edgeLabel;resizable=0;html=1;;align=center;verticalAlign=middle;fontSize=12;" parent="9CdUIaJMx9FMmrSefO2G-97" connectable="0" vertex="1">
          <mxGeometry relative="1" as="geometry" />
        </mxCell>
        <mxCell id="9CdUIaJMx9FMmrSefO2G-99" value="" style="endArrow=classic;html=1;rounded=0;strokeWidth=2;fontSize=12;fillColor=#e1d5e7;strokeColor=#9673a6;" parent="1" edge="1">
          <mxGeometry relative="1" as="geometry">
            <mxPoint x="1240" y="630" as="sourcePoint" />
            <mxPoint x="1430" y="630" as="targetPoint" />
          </mxGeometry>
        </mxCell>
        <mxCell id="9CdUIaJMx9FMmrSefO2G-100" value="MQTT协议接收消息" style="edgeLabel;resizable=0;html=1;;align=center;verticalAlign=middle;fontSize=12;" parent="9CdUIaJMx9FMmrSefO2G-99" connectable="0" vertex="1">
          <mxGeometry relative="1" as="geometry" />
        </mxCell>
        <mxCell id="9CdUIaJMx9FMmrSefO2G-104" value="" style="endArrow=classic;startArrow=classic;html=1;rounded=0;strokeWidth=2;fontSize=12;labelBackgroundColor=#E1D5E7;labelBorderColor=none;fontColor=#E1D5E7;strokeColor=#9673a6;fillColor=#e1d5e7;" parent="1" edge="1">
          <mxGeometry width="50" height="50" relative="1" as="geometry">
            <mxPoint x="740" y="590" as="sourcePoint" />
            <mxPoint x="1430" y="520" as="targetPoint" />
            <Array as="points">
              <mxPoint x="740" y="520" />
            </Array>
          </mxGeometry>
        </mxCell>
        <mxCell id="9CdUIaJMx9FMmrSefO2G-105" value="WebSocket协议发布/订阅机器人指令" style="edgeLabel;html=1;align=center;verticalAlign=middle;resizable=0;points=[];fontSize=12;" parent="9CdUIaJMx9FMmrSefO2G-104" vertex="1" connectable="0">
          <mxGeometry x="0.06" y="1" relative="1" as="geometry">
            <mxPoint x="172" y="1" as="offset" />
          </mxGeometry>
        </mxCell>
        <mxCell id="rBbP7oCfItHO99S8qVWC-2" value="" style="endArrow=none;html=1;rounded=0;entryX=0;entryY=0.5;entryDx=0;entryDy=0;exitX=1;exitY=0.5;exitDx=0;exitDy=0;strokeWidth=2;fontSize=12;fillColor=#dae8fc;strokeColor=#6c8ebf;" parent="1" edge="1">
          <mxGeometry width="50" height="50" relative="1" as="geometry">
            <mxPoint x="781" y="781" as="sourcePoint" />
            <mxPoint x="819" y="781" as="targetPoint" />
          </mxGeometry>
        </mxCell>
        <mxCell id="rBbP7oCfItHO99S8qVWC-5" value="API" style="rounded=1;whiteSpace=wrap;html=1;fontSize=12;fillColor=#d5e8d4;strokeColor=#82b366;" parent="1" vertex="1">
          <mxGeometry x="690" y="389" width="90" height="40" as="geometry" />
        </mxCell>
        <mxCell id="rBbP7oCfItHO99S8qVWC-7" value="" style="endArrow=none;html=1;rounded=0;strokeWidth=2;fontSize=12;fillColor=#d5e8d4;strokeColor=#82b366;" parent="1" edge="1">
          <mxGeometry width="50" height="50" relative="1" as="geometry">
            <mxPoint x="780" y="410" as="sourcePoint" />
            <mxPoint x="820" y="410" as="targetPoint" />
          </mxGeometry>
        </mxCell>
        <mxCell id="rBbP7oCfItHO99S8qVWC-8" value="" style="endArrow=classic;html=1;rounded=0;strokeWidth=2;fontSize=12;fillColor=#d5e8d4;strokeColor=#82b366;" parent="1" edge="1">
          <mxGeometry relative="1" as="geometry">
            <mxPoint x="500" y="410" as="sourcePoint" />
            <mxPoint x="680" y="410" as="targetPoint" />
          </mxGeometry>
        </mxCell>
        <mxCell id="rBbP7oCfItHO99S8qVWC-9" value="HTTP请求&lt;br style=&quot;font-size: 12px;&quot;&gt;查询机器人任务&lt;br style=&quot;font-size: 12px;&quot;&gt;查询应用工作区" style="edgeLabel;resizable=0;html=1;;align=center;verticalAlign=middle;fontSize=12;" parent="rBbP7oCfItHO99S8qVWC-8" connectable="0" vertex="1">
          <mxGeometry relative="1" as="geometry" />
        </mxCell>
        <mxCell id="rBbP7oCfItHO99S8qVWC-10" value="机器人管控平台架构图" style="text;html=1;align=center;verticalAlign=middle;whiteSpace=wrap;rounded=0;fontSize=25;fontStyle=1" parent="1" vertex="1">
          <mxGeometry x="825.37" y="210" width="279.25" height="30" as="geometry" />
        </mxCell>
      </root>
    </mxGraphModel>
  </diagram>
</mxfile>
